<svg xmlns="http://www.w3.org/2000/svg" xmlns:xlink="http://www.w3.org/1999/xlink" viewBox="0 0 1920 1080"><defs><style>.cls-1{fill:url(#linear-gradient);}.cls-2{fill:#8abcdd;}.cls-3{fill:#835156;}.cls-4{fill:#32242f;}.cls-5{fill:#875960;}.cls-6{fill:#54262c;}.cls-7{fill:#93b2ba;}.cls-10,.cls-11,.cls-7,.cls-8,.cls-9{opacity:0.87;}.cls-8{fill:#aec6cc;}.cls-9{fill:#c6dfe5;}.cls-10{fill:#849fa5;}.cls-11{fill:#6a8589;}.cls-12{fill:none;}.cls-13,.cls-18{fill:#ededed;}.cls-14{fill:#f4f4f4;}.cls-15{fill:#bfbfbf;}.cls-16{fill:#d8d8d8;}.cls-17{fill:#cecece;}.cls-18{opacity:0.2;}.cls-19{fill:#b3bbc0;}.cls-20{fill:#f5f7f5;}.cls-21{fill:#f1f1f1;}.cls-22{fill:#f1f2f5;}.cls-23{fill:#fffbde;}.cls-24{fill:#92bc72;}.cls-25{fill:#ccc;}.cls-26{fill:#c69c6d;}.cls-27{fill:#e6e6e6;}.cls-28{fill:#f2f2f2;}.cls-29{fill:gray;}.cls-30{fill:#fcee21;}.cls-31{fill:#acc1fd;}.cls-32{fill:#92a5e1;}.cls-33{fill:#999;}.cls-34{fill:#836f47;}.cls-35{fill:#95b2e5;}.cls-36{fill:#a68542;}.cls-37{fill:#b3b3b3;}.cls-38{fill:#7f95c6;}.cls-39{opacity:0.75;fill:url(#linear-gradient-2);}</style><linearGradient id="linear-gradient" x1="959.69" y1="2.06" x2="959.69" y2="1094.03" gradientUnits="userSpaceOnUse"><stop offset="0" stop-color="#c7e0ef"/><stop offset="0.14" stop-color="#c3ddee"/><stop offset="0.49" stop-color="#c0dced"/><stop offset="0.55" stop-color="#add1e7"/><stop offset="0.63" stop-color="#99c5e2"/><stop offset="0.71" stop-color="#8ebede"/><stop offset="0.8" stop-color="#8abcdd"/></linearGradient><linearGradient id="linear-gradient-2" x1="959.69" y1="0.3" x2="959.69" y2="301.08" gradientUnits="userSpaceOnUse"><stop offset="0.18" stop-color="#8abcdd"/><stop offset="0.22" stop-color="#91c0df" stop-opacity="0.94"/><stop offset="0.51" stop-color="#bfdbed" stop-opacity="0.54"/><stop offset="0.74" stop-color="#e2eef6" stop-opacity="0.25"/><stop offset="0.91" stop-color="#f7fafd" stop-opacity="0.07"/><stop offset="1" stop-color="#fff" stop-opacity="0"/></linearGradient></defs><g id="Fyr_og_hav" data-name="Fyr og hav"><rect class="cls-1" x="-0.31" y="-0.44" width="1920" height="687.65"/><rect class="cls-2" x="-0.31" y="686.75" width="1920" height="394.11"/><path class="cls-3" d="M1636.32,244.7c-21.63,0-39.16,6.82-39.16,15.24v27.21h78.32V259.94C1675.48,251.52,1658,244.7,1636.32,244.7Z"/><ellipse class="cls-4" cx="1636.32" cy="285.49" rx="39.16" ry="15.23"/><path class="cls-5" d="M1668.34,290.4c0-6.88-14.34-12.45-32-12.45s-32,5.57-32,12.45l-48.55,27.08h161.14Z"/><ellipse class="cls-6" cx="1636.32" cy="334.13" rx="91.22" ry="35.48"/><path class="cls-7" d="M1602.81,304.18s16.31-4.06,41.73-4.06,41.74,7.38,41.74,7.38V424.85s-26.37-3.83-41.74-3.89-41.73.57-41.73.57Z"/><polygon class="cls-8" points="1567.55 311.5 1601.14 303.05 1601.14 418.23 1567.55 427.59 1567.55 311.5"/><path class="cls-9" d="M1547.37,425.54,1547,341.3s-3.38-1.19-1.1-11.93,21.47-16.21,21.47-16.21l.18,97.29Z"/><polygon class="cls-10" points="1687.94 306.73 1715.23 317.12 1715.23 428.73 1687.94 418.01 1687.94 306.73"/><path class="cls-11" d="M1714.63,318.18s12.58,5.5,12.81,17.46c.1,4.67-2.5,99-2.5,99l-9.71-8.54-.6-107.9"/><path class="cls-12" d="M1689.6,399.19a98.51,98.51,0,0,1,22.35,9c.55-.32,1.09-.64,1.62-1V372.54a87.24,87.24,0,0,0-18.41-8.24c-1.79.59-3.65,1.15-5.56,1.69Z"/><path class="cls-12" d="M1690.09,362.75l-.49-.14v.28Z"/><path class="cls-12" d="M1636.32,372.67a221.11,221.11,0,0,1-33.51-2.47V395a222.41,222.41,0,0,1,33.51-2.47,205.5,205.5,0,0,1,50,5.79V366.88A205.5,205.5,0,0,1,1636.32,372.67Z"/><path class="cls-12" d="M1636.32,369.57a205.5,205.5,0,0,0,50-5.79v-2.06a205.5,205.5,0,0,0-50-5.79,222.31,222.31,0,0,0-33.51,2.47v8.7A222.31,222.31,0,0,0,1636.32,369.57Z"/><path class="cls-12" d="M1723.28,417.25v-15.1a34.68,34.68,0,0,1-6.39,5.91v3.29A34.64,34.64,0,0,1,1723.28,417.25Z"/><path class="cls-12" d="M1723.28,399V380.68a34.34,34.34,0,0,0-6.39-5.91V405A34.68,34.68,0,0,0,1723.28,399Z"/><path class="cls-12" d="M1545.71,387.31a6.51,6.51,0,0,0,0,5.1Z"/><path class="cls-12" d="M1560.69,408.15c1.62-.94,3.36-1.84,5.2-2.71V368.86c-7.54,3.56-13.32,7.7-16.86,12.22v17.55A40,40,0,0,0,1560.69,408.15Z"/><path class="cls-12" d="M1549,401.75v15.91a36.81,36.81,0,0,1,9.11-8A37,37,0,0,1,1549,401.75Z"/><path class="cls-12" d="M1599.48,395.52V369.66a155.64,155.64,0,0,1-22-5.36c-2.91,1-5.67,2-8.26,3.08V404A140.29,140.29,0,0,1,1599.48,395.52Z"/><path class="cls-12" d="M1599.48,358.94a160.7,160.7,0,0,0-16.94,3.81,165.87,165.87,0,0,0,16.94,3.81Z"/><path class="cls-12" d="M1569.21,364.27c1.24-.52,2.52-1,3.84-1.52-1.32-.5-2.6-1-3.84-1.53Z"/><path class="cls-12" d="M1569.21,313.16v45c2.59,1.09,5.35,2.12,8.26,3.08a154.28,154.28,0,0,1,22-5.36V304.72A139.72,139.72,0,0,0,1569.21,313.16Z"/><path class="cls-12" d="M1549,347.52V378c3.54-4.52,9.32-8.66,16.86-12.21v-6C1558.35,356.18,1552.57,352,1549,347.52Z"/><path class="cls-12" d="M1636.32,301.71a221,221,0,0,0-33.51,2.47v51.11a222.41,222.41,0,0,1,33.51-2.47,205,205,0,0,1,50,5.8V307.5A205.5,205.5,0,0,0,1636.32,301.71Z"/><path class="cls-12" d="M1545.71,334.8H1549v9.61c3.54,4.53,9.32,8.67,16.86,12.23v-42c-12.2,5.76-19.82,13-20.7,21a15,15,0,0,0,.52,2.55Z"/><path class="cls-12" d="M1713.57,319h1.06c-6.41-4.16-14.94-7.77-25-10.6v51.12c1.91.53,3.77,1.1,5.56,1.69a87.24,87.24,0,0,0,18.41-8.24Z"/><path class="cls-12" d="M1716.89,320.55v30.18a34.68,34.68,0,0,0,6.39-5.91v-10h3.32v4.37a14.74,14.74,0,0,0,.84-3.53C1726.84,330.2,1723.09,325.08,1716.89,320.55Z"/><path class="cls-12" d="M1716.89,353.84v17.82a34.68,34.68,0,0,1,6.39,5.91V347.93A34.68,34.68,0,0,1,1716.89,353.84Z"/><path class="cls-12" d="M1699.59,362.75a80.62,80.62,0,0,1,14,6.68V356.07A81.36,81.36,0,0,1,1699.59,362.75Z"/><path class="cls-12" d="M1565.89,408.55c-.8.37-1.58.76-2.34,1.15.76.39,1.54.78,2.34,1.16Z"/><path class="cls-12" d="M1636.32,463.48c40.76,0,75.26-10.4,87-24.75V420.36a34.68,34.68,0,0,0-6.39-5.91v27.69h-3.32V412.22c-.53-.32-1.07-.65-1.62-1a99,99,0,0,1-22.35,8.95v9.33h-3.32V421.1a205.5,205.5,0,0,1-50,5.79,221.11,221.11,0,0,1-33.51-2.47v1.9h-3.33v-2.44a139.72,139.72,0,0,1-30.27-8.44v19.48h-3.32V414c-1.84-.87-3.58-1.77-5.2-2.7a39.81,39.81,0,0,0-11.66,9.51v17.55C1560.4,452.88,1595.17,463.48,1636.32,463.48Z"/><path class="cls-12" d="M1599.48,420.78V398.63a139.16,139.16,0,0,0-30.27,8.44v5.27A140.29,140.29,0,0,0,1599.48,420.78Z"/><path class="cls-12" d="M1726.6,393.39a7.84,7.84,0,0,0,0-7.06Z"/><path class="cls-12" d="M1636.32,423.79a205.5,205.5,0,0,0,50-5.79V401.4a205.5,205.5,0,0,0-50-5.79,221,221,0,0,0-33.51,2.48v23.23A222.31,222.31,0,0,0,1636.32,423.79Z"/><path class="cls-12" d="M1726.6,433.07a14.52,14.52,0,0,0,.84-3.53,14.74,14.74,0,0,0-.84-3.53Z"/><path class="cls-12" d="M1545.71,427a15,15,0,0,0-.52,2.55,15.29,15.29,0,0,0,.52,2.56Z"/><path class="cls-12" d="M1709.09,409.7a105.25,105.25,0,0,0-19.49-7.41v14.82A105.25,105.25,0,0,0,1709.09,409.7Z"/><path class="cls-13" d="M1547.37,396.69a23.53,23.53,0,0,1-2.16-6.23v28.37a23.53,23.53,0,0,1,2.16-6.23Z"/><path class="cls-14" d="M1549,438.32V420.77a18.84,18.84,0,0,0-3.32,6.22v5.11A18.94,18.94,0,0,0,1549,438.32Z"/><path class="cls-13" d="M1546.86,329.37c-1-2-1.33,6.9-1.76,4.76v52.28a21.71,21.71,0,0,1,2.27-6Z"/><path class="cls-13" d="M1547.37,398.63V381.08a23.4,23.4,0,0,0-2.24,6.23v5.1A23.21,23.21,0,0,0,1547.37,398.63Z"/><path class="cls-15" d="M1725.31,414.15a24.36,24.36,0,0,1,2.13,5.65V393.39a24.6,24.6,0,0,1-2.13,5.66Z"/><path class="cls-15" d="M1725.3,345v35.8a30.38,30.38,0,0,1,2.24,6.53l-.1-50.92C1727,338.68,1726.3,342.92,1725.3,345Z"/><path class="cls-15" d="M1726.6,433.07V426a20,20,0,0,0-3.32-5.65v18.37A20.05,20.05,0,0,0,1726.6,433.07Z"/><path class="cls-15" d="M1727.44,393.39v-7.06a24,24,0,0,0-2.14-5.65V399A24,24,0,0,0,1727.44,393.39Z"/><path class="cls-13" d="M1599.48,426.32h3.33v-1.9q-1.68-.26-3.33-.54Z"/><path class="cls-13" d="M1602.81,421.32V398.09q-1.68.26-3.33.54v22.15C1600.58,421,1601.69,421.14,1602.81,421.32Z"/><path class="cls-13" d="M1599.48,304.72v51.12l3.33-.55V304.18Q1601.13,304.44,1599.48,304.72Z"/><path class="cls-13" d="M1599.48,358.94v36.58q1.65-.28,3.33-.54V358.4Q1601.13,358.66,1599.48,358.94Z"/><path class="cls-13" d="M1569.21,404V367.38c-1.14.48-2.25,1-3.32,1.48v36.58C1567,404.94,1568.07,404.44,1569.21,404Z"/><path class="cls-13" d="M1569.21,412.34v-5.27c-1.14.48-2.25,1-3.32,1.48v2.31C1567,411.36,1568.07,411.86,1569.21,412.34Z"/><path class="cls-13" d="M1569.24,313.16c-1.16.49-2.29,1-3.38,1.5v46.58l0,0v4.5c1.07-.51,2.18-1,3.32-1.49v-1.53h0Z"/><path class="cls-16" d="M1686.28,429.54h3.32v-9.33c-1.09.31-2.2.6-3.32.89Z"/><path class="cls-16" d="M1689.6,362.89v-.28c-1.09-.31-2.2-.6-3.32-.89v2.06C1687.4,363.49,1688.51,363.19,1689.6,362.89Z"/><path class="cls-13" d="M1689.6,417.11V402.29c-1.09-.3-2.2-.6-3.32-.89V418C1687.4,417.71,1688.51,417.42,1689.6,417.11Z"/><path class="cls-17" d="M1716.89,408.06c-.76.55-1.56,1.1-2.39,1.64.83.54,1.63,1.09,2.39,1.65Z"/><path class="cls-13" d="M1716.89,411.64V374.77c-1-.76-2.15-1.51-3.32-2.23v41.33C1714.74,413.14,1715.85,412.4,1716.89,411.64Z"/><path class="cls-13" d="M1713.57,317.12v52.31c1.17.73,2.28,1.47,3.32,2.23V320.55C1716.17,320,1713.57,317.12,1713.57,317.12Z"/><path class="cls-13" d="M1565.89,314.64c1.07-.51,2.18-1,3.32-1.48a139.72,139.72,0,0,1,30.27-8.44q1.65-.29,3.33-.54a221,221,0,0,1,33.51-2.47,205.5,205.5,0,0,1,50,5.79c1.12.28,2.23.58,3.32.89,10.09,2.83,26.57,11.63,27.29,12.16,6.2,4.53,9.95,9.65,10.55,15.09a13.44,13.44,0,0,0,.1-1.55c0-19.6-40.84-35.49-91.22-35.49s-91.22,15.89-91.22,35.49a13.43,13.43,0,0,0,.09,1.55C1546.07,327.68,1553.69,320.4,1565.89,314.64Z"/><path class="cls-18" d="M1565.89,359.74c1.07.51,2.18,1,3.32,1.48s2.52,1,3.84,1.53c1.43-.54,2.9-1.05,4.42-1.55-2.91-1-5.67-2-8.26-3.08-1.14-.49-2.25-1-3.32-1.48-7.54-3.56-13.32-7.7-16.86-12.23a18.84,18.84,0,0,1-3.32-6.22,15,15,0,0,1-.52-2.55,13.3,13.3,0,0,0-.09,1.55,14.41,14.41,0,0,0,.61,4.11,19,19,0,0,0,3.32,6.22C1552.57,352,1558.35,356.18,1565.89,359.74Z"/><path class="cls-18" d="M1723.28,344.82a34.68,34.68,0,0,1-6.39,5.91c-1,.76-2.15,1.5-3.32,2.23a87.24,87.24,0,0,1-18.41,8.24c1.52.5,3,1,4.43,1.55a81.36,81.36,0,0,0,14-6.68c1.17-.73,2.28-1.47,3.32-2.23a34.68,34.68,0,0,0,6.39-5.91,20.05,20.05,0,0,0,3.32-5.66,14.64,14.64,0,0,0,.94-5.08,13.3,13.3,0,0,0-.1-1.55,14.74,14.74,0,0,1-.84,3.53A19.87,19.87,0,0,1,1723.28,344.82Z"/><path class="cls-18" d="M1602.81,370.2a221.11,221.11,0,0,0,33.51,2.47,205.5,205.5,0,0,0,50-5.79c1.12-.29,2.23-.58,3.32-.89,1.91-.54,3.77-1.1,5.56-1.69q-2.46-.81-5.07-1.55l-.49.14c-1.09.3-2.2.6-3.32.89a205.5,205.5,0,0,1-50,5.79,222.31,222.31,0,0,1-33.51-2.47l-3.33-.54a165.87,165.87,0,0,1-16.94-3.81q-2.61.74-5.07,1.55a155.64,155.64,0,0,0,22,5.36Q1601.13,369.95,1602.81,370.2Z"/><path class="cls-13" d="M1716.89,371.66c-1-.76-2.15-1.5-3.32-2.23a80.62,80.62,0,0,0-14-6.68c-1.43-.54-2.91-1.05-4.43-1.55-1.79-.59-3.65-1.16-5.56-1.69-1.09-.31-2.2-.61-3.32-.89a205,205,0,0,0-50-5.8,222.41,222.41,0,0,0-33.51,2.47l-3.33.55a154.28,154.28,0,0,0-22,5.36c-1.52.5-3,1-4.42,1.55s-2.6,1-3.84,1.52-2.25,1-3.32,1.49c-7.54,3.55-13.32,7.69-16.86,12.21a19.17,19.17,0,0,0-3.32,6.23,14.41,14.41,0,0,0-.61,4.11,13.43,13.43,0,0,0,.09,1.55,15,15,0,0,1,.52-2.55,19,19,0,0,1,3.32-6.23c3.54-4.52,9.32-8.66,16.86-12.22,1.07-.51,2.18-1,3.32-1.48,2.59-1.09,5.35-2.12,8.26-3.08q2.46-.81,5.07-1.55a160.7,160.7,0,0,1,16.94-3.81q1.65-.29,3.33-.54a222.31,222.31,0,0,1,33.51-2.47,205.5,205.5,0,0,1,50,5.79c1.12.29,2.23.58,3.32.89l.49.14q2.61.74,5.07,1.55a87.24,87.24,0,0,1,18.41,8.24c1.17.72,2.28,1.47,3.32,2.23a34.34,34.34,0,0,1,6.39,5.91,19.87,19.87,0,0,1,3.32,5.65,14.74,14.74,0,0,1,.84,3.53,13.44,13.44,0,0,0,.1-1.55,14.69,14.69,0,0,0-.94-5.09,19.87,19.87,0,0,0-3.32-5.65A34.68,34.68,0,0,0,1716.89,371.66Z"/><path class="cls-18" d="M1558.14,409.7c.82-.53,1.66-1,2.55-1.55a40,40,0,0,1-11.66-9.52,18.84,18.84,0,0,1-3.32-6.22,15,15,0,0,1-.52-2.55,13.3,13.3,0,0,0-.09,1.55,14.41,14.41,0,0,0,.61,4.11,19.17,19.17,0,0,0,3.32,6.23A37,37,0,0,0,1558.14,409.7Z"/><path class="cls-18" d="M1723.28,399a34.68,34.68,0,0,1-6.39,5.91c-1,.76-2.15,1.5-3.32,2.23-.53.33-1.07.65-1.62,1,.88.51,1.73,1,2.55,1.55.83-.54,1.63-1.09,2.39-1.64a34.68,34.68,0,0,0,6.39-5.91,19.78,19.78,0,0,0,3.32-5.66,14.64,14.64,0,0,0,.94-5.08,13.3,13.3,0,0,0-.1-1.55,14.74,14.74,0,0,1-.84,3.53A19.87,19.87,0,0,1,1723.28,399Z"/><path class="cls-13" d="M1569.21,415.44a139.72,139.72,0,0,0,30.27,8.44q1.65.28,3.33.54a221.11,221.11,0,0,0,33.51,2.47,205.5,205.5,0,0,0,50-5.79c1.12-.29,2.23-.58,3.32-.89a99,99,0,0,0,22.35-8.95c-.92-.53-1.88-1.05-2.86-1.56a105.25,105.25,0,0,1-19.49,7.41c-1.09.31-2.2.6-3.32.89a205.5,205.5,0,0,1-50,5.79,222.31,222.31,0,0,1-33.51-2.47c-1.12-.18-2.23-.35-3.33-.54a140.29,140.29,0,0,1-30.27-8.44c-1.14-.48-2.25-1-3.32-1.48-.8-.38-1.58-.77-2.34-1.16-1,.51-1.94,1-2.86,1.56,1.62.93,3.36,1.83,5.2,2.7C1567,414.47,1568.07,415,1569.21,415.44Z"/><path class="cls-13" d="M1716.89,411.35c-.76-.56-1.56-1.11-2.39-1.65s-1.67-1-2.55-1.55a98.51,98.51,0,0,0-22.35-9c-1.09-.3-2.2-.6-3.32-.89a205.5,205.5,0,0,0-50-5.79,222.41,222.41,0,0,0-33.51,2.47q-1.68.25-3.33.54a140.29,140.29,0,0,0-30.27,8.44c-1.14.48-2.25,1-3.32,1.48-1.84.87-3.58,1.77-5.2,2.71-.89.51-1.73,1-2.55,1.55a36.81,36.81,0,0,0-9.11,8,19,19,0,0,0-3.32,6.22,14.41,14.41,0,0,0-.61,4.11,13.3,13.3,0,0,0,.09,1.55,15,15,0,0,1,.52-2.55,18.84,18.84,0,0,1,3.32-6.22,39.81,39.81,0,0,1,11.66-9.51c.92-.53,1.87-1.05,2.86-1.56.76-.39,1.54-.78,2.34-1.15,1.07-.51,2.18-1,3.32-1.48a139.16,139.16,0,0,1,30.27-8.44q1.65-.28,3.33-.54a221,221,0,0,1,33.51-2.48,205.5,205.5,0,0,1,50,5.79c1.12.29,2.23.59,3.32.89a105.25,105.25,0,0,1,19.49,7.41c1,.51,1.94,1,2.86,1.56.55.31,1.09.64,1.62,1,1.17.73,2.28,1.47,3.32,2.23a34.68,34.68,0,0,1,6.39,5.91,20,20,0,0,1,3.32,5.65,14.74,14.74,0,0,1,.84,3.53,13.3,13.3,0,0,0,.1-1.55,14.68,14.68,0,0,0-.94-5.08,20.05,20.05,0,0,0-3.32-5.66A34.64,34.64,0,0,0,1716.89,411.35Z"/><path class="cls-13" d="M1723.28,438.73c-11.7,14.35-46.2,24.75-87,24.75-41.15,0-75.92-10.6-87.29-25.16a18.94,18.94,0,0,1-3.32-6.22,15.29,15.29,0,0,1-.52-2.56,13.6,13.6,0,0,0-.09,1.56,14.41,14.41,0,0,0,.61,4.11,19.23,19.23,0,0,0,3.32,6.22c11.38,14.56,46.15,25.15,87.29,25.15,40.75,0,75.26-10.4,87-24.74a20.05,20.05,0,0,0,3.32-5.66,14.68,14.68,0,0,0,.94-5.08,13.61,13.61,0,0,0-.1-1.56,14.52,14.52,0,0,1-.84,3.53A20.05,20.05,0,0,1,1723.28,438.73Z"/><path class="cls-13" d="M1686.28,307.5v90.8c1.12.29,2.23.59,3.32.89v-90.8C1688.51,308.08,1687.4,307.78,1686.28,307.5Z"/><rect class="cls-13" x="1521.54" y="468.13" width="241.62" height="604.68"/><rect class="cls-13" x="1512.62" y="417.2" width="259.81" height="32.44"/><rect class="cls-19" x="1513.2" y="459.22" width="256.99" height="8.91"/><rect class="cls-13" x="1506.39" y="448.47" width="270.61" height="10.75"/><rect class="cls-13" x="1511.59" y="443.45" width="262.01" height="5.02"/><rect class="cls-19" x="1512.62" y="411.64" width="259.81" height="5.56"/><rect class="cls-13" x="1511.59" y="408.86" width="262.01" height="5.56"/><rect class="cls-19" x="1564.1" y="419.44" width="26.16" height="24.01"/><rect class="cls-20" x="1565.89" y="421.23" width="24.37" height="22.22"/><rect class="cls-13" x="1565.89" y="421.23" width="22.42" height="20.88"/><rect class="cls-19" x="1530.58" y="419.44" width="26.16" height="24.01"/><rect class="cls-20" x="1532.38" y="421.23" width="24.37" height="22.22"/><rect class="cls-13" x="1532.38" y="421.23" width="22.42" height="20.88"/><rect class="cls-19" x="1595.82" y="419.44" width="26.16" height="24.01"/><rect class="cls-20" x="1597.61" y="421.23" width="24.37" height="22.22"/><rect class="cls-13" x="1597.61" y="421.23" width="22.42" height="20.88"/><rect class="cls-19" x="1628.61" y="419.44" width="26.16" height="24.01"/><rect class="cls-20" x="1630.4" y="421.23" width="24.37" height="22.22"/><rect class="cls-13" x="1630.4" y="421.23" width="22.42" height="20.88"/><rect class="cls-19" x="1663.74" y="419.44" width="26.16" height="24.01"/><rect class="cls-20" x="1665.53" y="421.23" width="24.37" height="22.22"/><rect class="cls-13" x="1665.53" y="421.23" width="22.42" height="20.88"/><rect class="cls-19" x="1695.46" y="419.44" width="26.16" height="24.01"/><rect class="cls-20" x="1697.25" y="421.23" width="24.37" height="22.22"/><rect class="cls-13" x="1697.25" y="421.23" width="22.42" height="20.88"/><rect class="cls-19" x="1728.25" y="419.44" width="26.16" height="24.01"/><rect class="cls-20" x="1730.05" y="421.23" width="24.37" height="22.22"/><rect class="cls-13" x="1730.05" y="421.23" width="22.42" height="20.88"/><rect class="cls-19" x="1514.23" y="417.2" width="14.63" height="26.25"/><rect class="cls-13" x="1512.62" y="417.2" width="14.63" height="26.25"/><rect class="cls-20" x="1755.85" y="417.2" width="14.63" height="26.25"/><rect class="cls-13" x="1757.8" y="417.2" width="14.63" height="26.25"/><path class="cls-19" d="M1521.54,470.91v23.7h14.19v-6.16a9.6,9.6,0,0,1,19.13-1.13,8.59,8.59,0,0,1,0,1.13h0v6.16h14.89v-6.16a9.6,9.6,0,0,1,19.13-1.13,8.59,8.59,0,0,1,0,1.13h0v6.16H1602v-6.16a9.6,9.6,0,0,1,19.13-1.13,8.59,8.59,0,0,1,0,1.13h0v6.16h14.35v-6.16a9.6,9.6,0,0,1,19.13-1.13,8.59,8.59,0,0,1,0,1.13h0v6.16h14.35v-6.16a9.6,9.6,0,0,1,19.14-1.13,10.75,10.75,0,0,1,0,1.13h0v6.16h14.89v-6.16a9.6,9.6,0,0,1,19.14-1.13,10.75,10.75,0,0,1,0,1.13h0v6.16h13.1v-6.16a9.6,9.6,0,0,1,19.14-1.13,10.69,10.69,0,0,1,0,1.13h0v6.16h8.63v-23.7Z"/><path class="cls-13" d="M1515.71,468.13v23.71H1533v-6.16a9.6,9.6,0,0,1,19.14-1.13,10.65,10.65,0,0,1,0,1.13h0v6.16H1567v-6.16a9.6,9.6,0,0,1,19.14-1.13,10.65,10.65,0,0,1,0,1.13h0v6.16h13.1v-6.16a9.6,9.6,0,0,1,19.13-1.13,8.53,8.53,0,0,1,0,1.13h0v6.16h14.35v-6.16a9.6,9.6,0,0,1,19.14-1.13,10.65,10.65,0,0,1,0,1.13h0v6.16h14.36v-6.16a9.6,9.6,0,0,1,19.13-1.13,10.65,10.65,0,0,1,0,1.13h0v6.16h14.89v-6.16a9.6,9.6,0,0,1,19.13-1.13,10.65,10.65,0,0,1,0,1.13h0v6.16h13.09v-6.16a9.6,9.6,0,0,1,19.14-1.13,10.65,10.65,0,0,1,0,1.13h0v6.16h15.93V468.13Z"/><path class="cls-21" d="M1643,477.48a8.42,8.42,0,0,0-8.43,8.43V513.7h16.87V485.91A8.43,8.43,0,0,0,1643,477.48Z"/><rect class="cls-8" x="1637.23" y="502.1" width="4.93" height="7.01"/><rect class="cls-8" x="1644.23" y="502.1" width="4.93" height="7.01"/><rect class="cls-8" x="1637.23" y="493.37" width="4.93" height="7.01"/><rect class="cls-8" x="1644.23" y="493.37" width="4.93" height="7.01"/><rect class="cls-8" x="1637.23" y="484.63" width="4.93" height="7.01"/><rect class="cls-8" x="1644.23" y="484.63" width="4.93" height="7.01"/><rect class="cls-19" x="1630.25" y="513.7" width="26.2" height="7.59"/><rect class="cls-22" x="1629.06" y="515.51" width="28.58" height="3.97"/><rect class="cls-19" x="1633.03" y="489.13" width="1.52" height="24.56"/><path class="cls-23" d="M1920.42,1079.71s-764.1-.7-1120.84.32c248.88-29.8,724.35-277.81,1120.84-198.21Z"/><path class="cls-24" d="M1569.91,880.63s5.21-34.2,33.16-45.65C1579,856.55,1569.91,880.63,1569.91,880.63Z"/><path class="cls-24" d="M1564.12,882.13s24.21-24.7,53.58-17.66C1585.55,867.9,1564.12,882.13,1564.12,882.13Z"/><path class="cls-24" d="M1572.65,880.7s-6.86-16.35,7.3-33.73C1571.22,866.73,1572.65,880.7,1572.65,880.7Z"/><path class="cls-24" d="M1569.91,880.63s13.33-41,53-49.36C1586.55,852.89,1569.91,880.63,1569.91,880.63Z"/><path class="cls-24" d="M1569.91,880.63s26.6-47.61,85.56-47.16C1599,850.49,1569.91,880.63,1569.91,880.63Z"/><path class="cls-25" d="M350.47,786.68A29.63,29.63,0,0,1,362,782c1.61-.22,9.4,8,13.4,12.31l2.77-.54,3.08,1.74-4.83,1s-13.84-.33-25.91-7.77l-2.23-2.83Z"/><path class="cls-26" d="M381.23,795.53s-15.21-12.32-17.7-12-8.28-1-15.27,2.38C361.88,794.14,381.23,795.53,381.23,795.53Z"/><path class="cls-25" d="M364.22,787l-10.58-42.14s-9.5,13.3-4.1,38.34A42.5,42.5,0,0,0,364.22,787Z"/><path class="cls-27" d="M379.1,792.83l-25.46-48s-4.93,19.09.48,44.13C365.6,795.88,379.1,792.83,379.1,792.83Z"/><path class="cls-25" d="M150.78,873.73a67.17,67.17,0,0,0-28.11-12.28c-4-.56-23.47,21.72-33.49,33.5l-6.79-1.37-7.65,4.77,11.85,2.56s34.05-1.23,64.06-21.6l5.61-7.67Z"/><path class="cls-26" d="M74.74,898.35s37.94-33.59,44-32.72,20.43-3.06,37.49,6C122.4,894.1,74.74,898.35,74.74,898.35Z"/><path class="cls-25" d="M114.31,882.56l31.66-120s20.62,40.92,6.26,108.53C139.9,880.23,114.31,882.56,114.31,882.56Z"/><path class="cls-27" d="M76.85,893.58l69.12-131s11.32,51.31-3,118.92C114.4,900.4,76.85,893.58,76.85,893.58Z"/><path class="cls-25" d="M314.53,917.93A96.47,96.47,0,0,0,277,902.57c-5.27-.75-30.82,25.94-43.92,40.07l-9-1.78-10.08,5.66,15.78,3.3s45.22-.93,84.73-25.12l7.32-9.21Z"/><path class="cls-26" d="M213.94,946.52s49.84-40.11,57.94-38.95,27.08-3.37,49.89,7.92C277.17,942.16,213.94,946.52,213.94,946.52Z"/><path class="cls-25" d="M266.23,928l40-145s28.08,50,10.15,131.73C300.19,925.64,266.23,928,266.23,928Z"/><path class="cls-27" d="M216.67,940.77,306.27,783s15.9,62.43-2,144.18C266.66,949.67,216.67,940.77,216.67,940.77Z"/><path class="cls-25" d="M260.1,824.2a37.44,37.44,0,0,0-16.87-7.92c-2.39-.35-14.38,14.67-20.53,22.62l-4.1-.85-4.66,3.24,7.13,1.6a78.52,78.52,0,0,0,38.89-15l3.46-5.16Z"/><path class="cls-26" d="M213.94,841.29s23.23-22.72,26.9-22.2,12.36-2.22,22.58,3.67C242.77,838,213.94,841.29,213.94,841.29Z"/><path class="cls-25" d="M238,830.41l20.21-80.24s12.09,27.07,2.81,72.25C253.46,828.63,238,830.41,238,830.41Z"/><path class="cls-27" d="M215.26,838.1l42.93-87.93s6.38,34.08-2.9,79.26C237.88,842.3,215.26,838.1,215.26,838.1Z"/><path class="cls-28" d="M977.49,571.29s13.91-11.09,25.87-11.35a27.59,27.59,0,0,1,18.29,6.59s7.66-9.54,24.21-11.32,21.59,4.28,21.59,4.28-11.48-12.18-24.36-10.79S1020.53,560,1020.53,560a20.78,20.78,0,0,0-18.84-7.9C988.81,553.52,977.49,571.29,977.49,571.29Z"/><circle class="cls-29" cx="1020.59" cy="562.5" r="4.11"/><path class="cls-28" d="M1085.39,591s18.08.91,26.26-1.14a19.43,19.43,0,0,1,13.6,1.67s3.78-7.75,14.89-11.57a29.74,29.74,0,0,0,15.76-12.37,152.66,152.66,0,0,1-18.69,8.33c-8.63,3-13.74,11.32-13.74,11.32a14.65,14.65,0,0,0-14.19-2.49C1100.65,587.67,1085.39,591,1085.39,591Z"/><circle class="cls-29" cx="1123.9" cy="588.88" r="2.9"/><path class="cls-28" d="M1119.64,518.68s10.82.55,16.36,2.21a13.32,13.32,0,0,1,7.42,5.74s4.93-3.24,12.81-1.6,18.65,6.47,18.65,6.47-12.84-8.59-19-9.87-12.05,1.85-12.05,1.85a10,10,0,0,0-7.48-6.42C1130.27,515.78,1119.64,518.68,1119.64,518.68Z"/><circle class="cls-29" cx="1143.53" cy="524.63" r="1.99"/><path class="cls-30" d="M1018.09,562.57c-.08.27-1.33,5.23-.44,4.85a36.91,36.91,0,0,0,3.83-2.75Z"/><path class="cls-30" d="M1121.87,590c.09.25,1.77,4.72,2.24,3.95a32.72,32.72,0,0,0,1.48-4.15Z"/><path class="cls-30" d="M1142.8,525.75c.09.1,1.85,2,1.92,1.51a18,18,0,0,0-.11-2.37Z"/><path class="cls-28" d="M1213.61,733.94s-3.43-2.73-6.39-2.8a6.8,6.8,0,0,0-4.51,1.63,9.12,9.12,0,0,0-6-2.8c-4.09-.44-5.33,1.06-5.33,1.06s2.83-3,6-2.66a10.32,10.32,0,0,1,5.57,2.79,5.15,5.15,0,0,1,4.66-1.95C1210.82,729.56,1213.61,733.94,1213.61,733.94Z"/><circle class="cls-29" cx="1202.97" cy="731.78" r="1.02"/><path class="cls-28" d="M1192.15,722a31.79,31.79,0,0,1-6.49-.29,4.75,4.75,0,0,0-3.35.42,6.47,6.47,0,0,0-3.68-2.86,7.33,7.33,0,0,1-3.89-3.06,37.36,37.36,0,0,0,4.61,2.06,7.32,7.32,0,0,1,3.4,2.8,3.6,3.6,0,0,1,3.5-.62C1188.38,721.2,1192.15,722,1192.15,722Z"/><circle class="cls-29" cx="1182.64" cy="721.5" r="0.72"/><path class="cls-28" d="M1222.33,699.26a23.38,23.38,0,0,0-4,.55,3.26,3.26,0,0,0-1.83,1.42,4.45,4.45,0,0,0-3.17-.4,28.77,28.77,0,0,0-4.6,1.6s3.17-2.12,4.68-2.44a5,5,0,0,1,3,.46,2.48,2.48,0,0,1,1.84-1.59A11.87,11.87,0,0,1,1222.33,699.26Z"/><circle class="cls-29" cx="1216.43" cy="700.73" r="0.49"/><path class="cls-30" d="M1203.59,731.79c0,.07.33,1.29.11,1.2a9.52,9.52,0,0,1-1-.68Z"/><path class="cls-30" d="M1183.14,721.77c0,.06-.44,1.17-.55,1a8,8,0,0,1-.37-1Z"/><path class="cls-30" d="M1216.61,701s-.46.49-.48.37,0-.58,0-.58Z"/><path class="cls-31" d="M1315.08,748.75v-1h3.09s-2,10.22-3.68,12.93h-1.77a47.52,47.52,0,0,1-13.65,3.09c-6.89.33-31.36.77-40.29-3.55-13.46-6.49-13.66-10.5-13.66-10.5s14.51,6.37,35.18,7.62c17.83,1.07,27-2.17,28.81-2.83s6.5-3.17,7.75-4.92l-1,0,.16-1Z"/><path class="cls-28" d="M1316,754.79s-8.85,6-26.51,6c-9.19,0-27.3-2.23-30.26-3.08-9.14-2.63-9.12-2.69-9.12-2.69s-3.67-2-5-5.39c8.23,3.67,23.24,6.3,36.19,7.49a64.64,64.64,0,0,0,23.54-2.1,35.88,35.88,0,0,0,12-5.52Z"/><path class="cls-32" d="M1247.71,748c2.14-2,8.94-1.56,10.41-1.56s26.32,1,26.32,1,7.76-.16,15.55.11,15.88,1,16,1c0,0,1,0,.27.79a12.91,12.91,0,0,1-1.76,1.59c-3.74-.32-10.58,0-14.65-.12-9.06-.18-23.49-.82-23.49-.82s-12.25-.65-13.72-.65-7.89-.25-9.79,1.81a1.33,1.33,0,0,0-.27,1.56c-1.07-.29-1.66-.47-1.66-.47S1245.67,749.87,1247.71,748Z"/><path class="cls-33" d="M1253.08,750.93c1.89-2.06,8.32-1.81,9.79-1.81s13.72.65,13.72.65,16.57.34,25.64.66c4.06.14,8.76,0,12.49.28a27.12,27.12,0,0,1-9.63,4.42c-7,1.88-14.39,2.49-23.78,2a145.42,145.42,0,0,1-29-4.66C1252.11,752,1252.59,751.46,1253.08,750.93Z"/><path class="cls-34" d="M1249.39,752.36c3.33,1,25.53,6.5,45.55,5.12,17.12-1.18,22.9-7.87,22.9-7.87s.66-1.25-.52-1.58-9.39-.65-16.48-.85-22.18-.39-27-.72-21.46-.86-25.53-.2c-2.17.33-2.92.76-3.35,2.1C1244.4,750.24,1246.7,751.58,1249.39,752.36Zm-1.12-4.13c1.88-1.87,9.06-1.38,10.51-1.38s12.66.33,12.66.33l25.27.59c17,.39,18.57.92,18.9.92,0,0,1,0,.26.72s-3.51,3.78-11,5.65c-6.9,1.7-14.38,2.05-23.63,1.64a146.06,146.06,0,0,1-29.73-4.66S1246.4,750.1,1248.27,748.23Z"/><path class="cls-35" d="M1318.17,747.7c-.07-.06-2.36-.06-2.36-.06s-.33,1.05-.07,1.05A23.3,23.3,0,0,0,1318.17,747.7Z"/><path class="cls-36" d="M1292.75,704.23l.59.06L1294,754s-.13.52-1,.45-.79-.26-.79-.26"/><path class="cls-36" d="M1243.29,743.33v-.61l12.45,2c-.4-10.14-1.16-27.78-1.16-27.78h1l1.66,34.74H1256c0-.07-.07-2.54-.21-6.13Z"/><path class="cls-27" d="M1254.93,731.34a27.72,27.72,0,0,1-5.34,7.18c-3.15,2.88-4.64,4.2-4.64,4.2l10.41,1.75Z"/><path class="cls-25" d="M1314.49,760.63s-.76-2.47-3.13-2-6.12,3.85-7.7,4.46-12.68.88-12.68.88,16.53,1,19.42.08a7.07,7.07,0,0,0,4.09-3.39"/><polygon class="cls-37" points="1269.19 739.67 1257.23 738.88 1257.65 753.94 1268.2 755.75 1268.14 747.05 1269.19 739.67"/><polygon class="cls-27" points="1271.28 754.27 1272.83 743.4 1273.54 738.84 1275.06 737.49 1272.17 753.29 1271.28 754.27"/><path class="cls-27" d="M1273.57,738.55c-.26.09-4.35.82-4.35.82l-1,7.38-1,8.57,4.14-1.05,1.58-11.17Z"/><polygon class="cls-28" points="1275.06 737.49 1271 736.66 1261.33 736.33 1257.24 738.92 1269.19 739.67 1273.54 738.84 1275.06 737.49"/><path class="cls-34" d="M1256.58,753.29s10.06,2.13,14.4,2.58-2.43.29-2.43.29l-12.11-2.28Z"/><path class="cls-27" d="M1316.86,749.54a29.75,29.75,0,0,0-18.18-5.64c-2.23,2-1.92,4.29-2.44,12.69C1310.81,755.67,1316.86,749.54,1316.86,749.54Z"/><path class="cls-38" d="M1312.72,760.63s4.66-9,4.27-10.63c-.13.13-1,.07-1,.07l-.2-1.38,2.43-1s1.11,3.61-3.68,12.93A9,9,0,0,0,1312.72,760.63Z"/><polygon class="cls-32" points="1269.88 740.36 1272.73 739.84 1272.27 743.18 1269.38 744.06 1269.88 740.36"/><polygon class="cls-32" points="1273.69 739.57 1274.6 738.74 1274 742.14 1273.07 742.96 1273.69 739.57"/><polygon class="cls-27" points="1274.28 752.87 1275.79 749.95 1289.93 749.95 1289.33 752.87 1274.28 752.87"/><rect class="cls-37" x="1274.28" y="752.87" width="15.05" height="3.06"/><polygon class="cls-37" points="1289.93 749.95 1289.33 752.87 1289.33 755.93 1290.63 752.29 1290.56 750.77 1289.93 749.95"/></g><g id="Layer_3" data-name="Layer 3"><rect class="cls-39" x="-0.31" y="-0.79" width="1920" height="299"/></g></svg>