<svg xmlns="http://www.w3.org/2000/svg" viewBox="0 0 1280 1035"><defs><style>.cls-1{fill:#629cb2;}.cls-2{fill:#77b1ce;}.cls-3{fill:#fff9c3;}.cls-4{fill:#ede8cc;}.cls-5{fill:#ed6979;}.cls-6{fill:#efebd5;}</style></defs><g id="Layer_5" data-name="Layer 5"><path class="cls-1" d="M1213.78,120.22c41.74,138.12-333,778-517.88,838.37S111.45,549.41,112.55,394.49C114,192.61,1075.09,34.07,1178.23,84.25,1191.48,90.7,1210.73,110.11,1213.78,120.22Z"/><path class="cls-2" d="M1202.92,109.35c41.74,138.13-333,778-517.88,838.38S100.59,538.55,101.69,383.63C103.22,165.8,1161.18-28.77,1202.92,109.35Z"/><path class="cls-3" d="M1175.47,126.33C1215.25,257.94,858.16,867.63,682,925.17S125.13,535.28,126.17,387.66C127.64,180.11,1135.7-5.29,1175.47,126.33Z"/></g><g id="Layer_1" data-name="Layer 1"><path class="cls-4" d="M148.77,367.7H254.13c0,57.34-47.35,104.15-105.36,104.15C90.47,471.85,43.12,425,43.12,367.7c0-57.64,47.35-104.45,105.65-104.45a107.39,107.39,0,0,1,74.58,30.43l-28.41,28.09a66.3,66.3,0,0,0-46.17-19c-36.4,0-65.7,29-65.7,64.95,0,35.69,29.3,64.66,65.7,64.66a65.43,65.43,0,0,0,53.57-27.5H148.77Z"/><path class="cls-4" d="M272,467.53V327h37.88V467.53Z"/><path class="cls-4" d="M336.64,467.53V267.12h37.88V467.53Z"/><path class="cls-4" d="M401.27,467.53V267.12h37.88V467.53Z"/><path class="cls-4" d="M459,399.3c0-40.08,32.85-72.56,73.4-72.56s73.39,32.48,73.39,72.56a77.86,77.86,0,0,1-1.18,14.33H499.82a35.67,35.67,0,0,0,32.56,20.78,34.39,34.39,0,0,0,24.86-10.24l26.93,26.62a73.33,73.33,0,0,1-51.79,21.06C491.83,471.85,459,439.38,459,399.3ZM564.63,385a35.66,35.66,0,0,0-64.81,0Z"/><path class="cls-4" d="M625.39,467.53V267.12h37.88V467.53Z"/><path class="cls-4" d="M683.1,399.3c0-40.08,32.85-72.56,73.4-72.56s73.39,32.48,73.39,72.56a77.86,77.86,0,0,1-1.18,14.33H723.94a35.67,35.67,0,0,0,32.56,20.78,34.39,34.39,0,0,0,24.86-10.24l26.93,26.62a73.33,73.33,0,0,1-51.79,21.06C716,471.85,683.1,439.38,683.1,399.3ZM788.76,385a35.67,35.67,0,0,0-64.82,0Z"/><path class="cls-4" d="M827.46,518.43V483a18,18,0,0,0,7.1,1.46c7.4,0,13.62-6.73,13.62-14.63V326.8h37.88V469.86c0,27.51-14.8,52.08-45.58,52.08A25.73,25.73,0,0,1,827.46,518.43Z"/><path class="cls-4" d="M906,399.3c0-40.08,32.86-72.56,73.4-72.56s73.4,32.48,73.4,72.56a78.74,78.74,0,0,1-1.18,14.33H946.88a35.67,35.67,0,0,0,32.55,20.78,34.35,34.35,0,0,0,24.86-10.24l26.94,26.62a73.34,73.34,0,0,1-51.8,21.06C938.89,471.85,906,439.38,906,399.3ZM1011.69,385a35.66,35.66,0,0,0-64.81,0Z"/><path class="cls-5" d="M144.73,363.66H250.1c0,57.34-47.36,104.16-105.37,104.16-58.3,0-105.65-46.82-105.65-104.16,0-57.63,47.35-104.44,105.65-104.44a107.42,107.42,0,0,1,74.59,30.42L190.9,317.73a66.3,66.3,0,0,0-46.17-19c-36.4,0-65.7,29-65.7,65,0,35.69,29.3,64.66,65.7,64.66a65.43,65.43,0,0,0,53.57-27.5H144.73Z"/><path class="cls-5" d="M268,309.78m0,153.71V323h37.89V463.49Z"/><path class="cls-5" d="M332.6,463.49V263.08h37.88V463.49Z"/><path class="cls-5" d="M397.23,463.49V263.08h37.88V463.49Z"/><path class="cls-5" d="M454.94,395.26c0-40.08,32.85-72.56,73.4-72.56s73.39,32.48,73.39,72.56a78,78,0,0,1-1.18,14.34H495.78a35.68,35.68,0,0,0,32.56,20.77,34.39,34.39,0,0,0,24.86-10.24l26.93,26.62a73.34,73.34,0,0,1-51.79,21.07C487.79,467.82,454.94,435.34,454.94,395.26ZM560.6,380.92a35.67,35.67,0,0,0-64.82,0Z"/><path class="cls-5" d="M621.35,463.49V263.08h37.88V463.49Z"/><path class="cls-5" d="M679.06,395.26c0-40.08,32.85-72.56,73.4-72.56s73.39,32.48,73.39,72.56a78,78,0,0,1-1.18,14.34H719.9a35.68,35.68,0,0,0,32.56,20.77,34.39,34.39,0,0,0,24.86-10.24l26.93,26.62a73.34,73.34,0,0,1-51.79,21.07C711.91,467.82,679.06,435.34,679.06,395.26Zm105.66-14.34a35.67,35.67,0,0,0-64.82,0Z"/><path class="cls-5" d="M823.42,514.39V479a18.06,18.06,0,0,0,7.11,1.46c7.39,0,13.61-6.73,13.61-14.63V322.76H882V465.82c0,27.51-14.8,52.08-45.58,52.08A25.76,25.76,0,0,1,823.42,514.39Z"/><path class="cls-5" d="M902,395.26c0-40.08,32.85-72.56,73.39-72.56s73.4,32.48,73.4,72.56a78,78,0,0,1-1.18,14.34H942.84a35.68,35.68,0,0,0,32.55,20.77,34.35,34.35,0,0,0,24.86-10.24l26.94,26.62a73.34,73.34,0,0,1-51.8,21.07C934.85,467.82,902,435.34,902,395.26Zm105.65-14.34a35.66,35.66,0,0,0-64.81,0Z"/><path class="cls-6" d="M140.7,359.62H246.06c0,57.35-47.36,104.16-105.36,104.16C82.39,463.78,35,417,35,359.62,35,302,82.39,255.18,140.7,255.18a107.4,107.4,0,0,1,74.58,30.42l-28.42,28.09a66.29,66.29,0,0,0-46.16-19c-36.41,0-65.71,29-65.71,64.95,0,35.7,29.3,64.66,65.71,64.66a65.39,65.39,0,0,0,53.56-27.5H140.7Z"/><path class="cls-6" d="M263.92,309.36m0,150.09V318.91h37.89V459.45Z"/><path class="cls-6" d="M328.56,459.45V259h37.88V459.45Z"/><path class="cls-6" d="M393.19,459.45V259h37.88V459.45Z"/><path class="cls-6" d="M450.9,391.22c0-40.08,32.85-72.56,73.4-72.56s73.4,32.48,73.4,72.56a78,78,0,0,1-1.19,14.34H491.74a35.7,35.7,0,0,0,32.56,20.77,34.35,34.35,0,0,0,24.86-10.24l26.93,26.62a73.34,73.34,0,0,1-51.79,21.07C483.75,463.78,450.9,431.3,450.9,391.22Zm105.66-14.34a35.67,35.67,0,0,0-64.82,0Z"/><path class="cls-6" d="M617.31,459.45V259h37.88V459.45Z"/><path class="cls-6" d="M675,391.22c0-40.08,32.85-72.56,73.4-72.56s73.4,32.48,73.4,72.56a78,78,0,0,1-1.19,14.34H715.86a35.7,35.7,0,0,0,32.56,20.77,34.35,34.35,0,0,0,24.86-10.24l26.93,26.62a73.34,73.34,0,0,1-51.79,21.07C707.87,463.78,675,431.3,675,391.22Zm105.66-14.34a35.67,35.67,0,0,0-64.82,0Z"/><path class="cls-6" d="M819.38,510.35V475a18.06,18.06,0,0,0,7.11,1.46c7.39,0,13.61-6.72,13.61-14.62V318.72H878V461.79c0,27.5-14.8,52.07-45.57,52.07A25.67,25.67,0,0,1,819.38,510.35Z"/><path class="cls-6" d="M898,391.22c0-40.08,32.85-72.56,73.4-72.56s73.39,32.48,73.39,72.56a78,78,0,0,1-1.18,14.34H938.8a35.68,35.68,0,0,0,32.56,20.77,34.31,34.31,0,0,0,24.85-10.24l26.94,26.62a73.34,73.34,0,0,1-51.79,21.07C930.81,463.78,898,431.3,898,391.22Zm105.65-14.34a35.66,35.66,0,0,0-64.81,0Z"/><path class="cls-5" d="M136.66,355.58H242c0,57.35-47.36,104.16-105.36,104.16C78.35,459.74,31,412.93,31,355.58,31,298,78.35,251.14,136.66,251.14a107.4,107.4,0,0,1,74.58,30.42l-28.41,28.09a66.38,66.38,0,0,0-46.17-19c-36.41,0-65.71,29-65.71,64.95,0,35.7,29.3,64.66,65.71,64.66a65.39,65.39,0,0,0,53.56-27.5H136.66Z"/><path class="cls-5" d="M259.88,455.41V314.87h37.89V455.41Z"/><path class="cls-5" d="M324.52,455.41V255H362.4V455.41Z"/><path class="cls-5" d="M389.15,455.41V255H427V455.41Z"/><path class="cls-5" d="M446.86,387.58c0-40.08,32.85-72.56,73.4-72.56s73.4,32.48,73.4,72.56a78,78,0,0,1-1.19,14.34H487.7a35.7,35.7,0,0,0,32.56,20.77,34.33,34.33,0,0,0,24.86-10.24l26.93,26.62a73.34,73.34,0,0,1-51.79,21.07C479.71,460.14,446.86,427.66,446.86,387.58Zm105.66-14.33a35.66,35.66,0,0,0-64.82,0Z"/><path class="cls-5" d="M613.27,455.41V255h37.89V455.41Z"/><path class="cls-5" d="M671,387.18c0-40.08,32.85-72.56,73.4-72.56s73.4,32.48,73.4,72.56a78,78,0,0,1-1.19,14.34H711.82a35.7,35.7,0,0,0,32.56,20.77,34.33,34.33,0,0,0,24.86-10.24l26.93,26.62a73.34,73.34,0,0,1-51.79,21.07C703.83,459.74,671,427.26,671,387.18Zm105.66-14.33a35.66,35.66,0,0,0-64.82,0Z"/><path class="cls-5" d="M815.34,506.31v-35.4a18.06,18.06,0,0,0,7.11,1.47c7.4,0,13.61-6.73,13.61-14.63V314.68h37.88V457.75c0,27.5-14.79,52.07-45.57,52.07A25.69,25.69,0,0,1,815.34,506.31Z"/><path class="cls-5" d="M893.92,387.18c0-40.08,32.85-72.56,73.4-72.56s73.39,32.48,73.39,72.56a78,78,0,0,1-1.18,14.34H934.76a35.68,35.68,0,0,0,32.56,20.77,34.35,34.35,0,0,0,24.86-10.24l26.93,26.62a73.34,73.34,0,0,1-51.79,21.07C926.77,459.74,893.92,427.26,893.92,387.18Zm105.65-14.33a35.66,35.66,0,0,0-64.81,0Z"/><path class="cls-4" d="M674.8,674.89c1-4,2.73-5.74,6.46-5.23a38.66,38.66,0,0,1,15.83,7c6.75,5.55,8.56,12,9,22,.28,21.08-6.52,95.79,2.23,110.42,3.63,6.06,8.77,7.78,14.82,4.16,23.72-14.2,30.34-62.7,34.21-91.74.51-3.74,2.62-3.63,4.84-2.22,7.46,4.45,10,9.8,9,18.57-3.56,29.55-12.72,96.71-49.06,118.45-19.17,11.48-37,9.14-49.4-11.56C656.82,818,664.46,716,674.8,674.89Z"/><path class="cls-4" d="M855.49,752.55c-4.16,21.68-19.31,41-39,52.8-14.64,8.76-26.74,9.15-31.57,1.07-7.25-12.11,7.5-36.7,35.16-54.62,3.06-25.82-27.56-64.38-31.66-94.14-7.28,15.32-11.74,36.5-17.14,80.16-.51,3.73-2,4.64-5.35,2.52-5.64-4.85-9.56-11.41-8.55-18.87C763.3,674.07,768.18,641,787,617.42c14.45-18.24,30.79-25.28,36.13-20.94,4.84,4.65,2.2,15.13-7.9,28,4.51,28.15,39.37,60.06,41.14,94,14.35-23,18-40.93,22.17-69.46.51-3.74,2.33-4.14,4.85-2.22,6.44,5.05,10.07,11.11,9,18.57C888.54,697.82,878.22,725.24,855.49,752.55Z"/><path class="cls-4" d="M961.53,721.31c-32.3,19.33-60.84,11.73-75.93-13.5-26.88-44.92-2.26-137.78,53.76-171.3,19.68-11.77,34.81-7.11,42.55,8.12,14.59,29-9.08,85.62-63.78,115.61a33.32,33.32,0,0,0,3.92,10c7.45,14.74,21.86,20.5,38.52,10.54,42.89-25.67,55-89.09,58.23-115.72.51-3.73,2.53-4.94,5.35-2.51,5.64,4.85,9.57,11.41,8.55,18.87C1029,613.07,1017.54,687.8,961.53,721.31ZM949.61,567.39c-.9-4.94-3.82-8.68-8.36-6-15.14,9.06-28.31,51.2-25.52,84.49C942.49,619.63,952.51,584.84,949.61,567.39Z"/><path class="cls-4" d="M1139.78,609.17c-15.14,9.06-32.58,5.11-41.64-10-15.4-25.74-10.5-76-1.78-114.08-20.63,41.13-44.72,116.54-54.47,169-1,4-2.43,6.25-7.77,5.33-8.27-1.22-16.84-6.37-21.06-13.43-3.33-5.56-4.12-12.62-3.81-22.4,1.65-30.46,11.11-97.11,9.24-128.89-.1-4.74,1.41-5.64,5.15-5.14,4.53.72,10.18,2.14,14.31,4.46,6,3.23,9.57,8,10.17,15.85a331.23,331.23,0,0,1-.27,59.1c8.72-38.11,29.86-93.26,45.73-120.57,3-5.24,6.36-6.55,11-4.53,7.06,2.63,15.22,9.4,18.84,15.46,2.72,4.54,4.53,11,4.32,18.66-.74,28.54-5.94,68,4,84.63,2.41,4,6.15,4.54,9.68,2.43,22.2-13.29,31.64-62.8,35.82-94.76.51-3.74,2.32-4.14,4.84-2.22,6.45,5.05,9.57,11.41,9.06,18.57C1187.5,518.26,1178.14,586.22,1139.78,609.17Z"/><path class="cls-5" d="M671.54,671.63c1-4,2.73-5.74,6.46-5.23a38.66,38.66,0,0,1,15.83,7c6.75,5.55,8.56,12,9,22,.28,21.08-6.52,95.79,2.23,110.42,3.63,6.06,8.77,7.78,14.83,4.16,23.71-14.2,30.33-62.7,34.2-91.74.51-3.73,2.62-3.63,4.84-2.22,7.46,4.45,10,9.8,9.06,18.57C764.47,764.11,755.31,831.27,719,853c-19.18,11.48-37,9.14-49.41-11.56C653.56,814.71,661.2,712.77,671.54,671.63Z"/><path class="cls-5" d="M852.23,749.29c-4.16,21.68-19.31,41-39,52.8-14.64,8.76-26.74,9.15-31.57,1.07-7.25-12.11,7.5-36.7,35.16-54.62,3.06-25.81-27.56-64.38-31.65-94.14-7.29,15.32-11.75,36.5-17.15,80.17-.51,3.73-2,4.63-5.35,2.51-5.64-4.85-9.56-11.41-8.55-18.87,5.91-47.4,10.79-80.47,29.58-104.05,14.45-18.24,30.79-25.28,36.13-20.94,4.84,4.65,2.2,15.13-7.9,28,4.51,28.15,39.37,60.06,41.14,94,14.35-23,18-40.93,22.17-69.46.51-3.73,2.33-4.14,4.85-2.22,6.45,5.05,10.07,11.11,9,18.57C885.28,694.56,875,722,852.23,749.29Z"/><path class="cls-5" d="M958.27,718.05c-32.3,19.33-60.83,11.73-75.93-13.5-26.88-44.92-2.26-137.78,53.76-171.3,19.68-11.77,34.81-7.11,42.55,8.12,14.59,29-9.08,85.62-63.78,115.61a33.32,33.32,0,0,0,3.92,10c7.45,14.74,21.86,20.5,38.52,10.54,42.89-25.67,55-89.09,58.23-115.72.51-3.73,2.53-4.94,5.35-2.51,5.64,4.85,9.57,11.41,8.55,18.87C1025.77,609.82,1014.29,684.54,958.27,718.05ZM946.35,564.13c-.9-4.94-3.82-8.68-8.36-6-15.14,9.06-28.3,51.2-25.52,84.49C939.23,616.37,949.26,581.58,946.35,564.13Z"/><path class="cls-5" d="M1136.52,605.91c-15.14,9.06-32.58,5.11-41.64-10-15.4-25.74-10.5-76-1.78-114.07-20.62,41.12-44.72,116.53-54.47,169-1,4-2.42,6.25-7.77,5.33-8.27-1.22-16.83-6.37-21.06-13.43-3.32-5.56-4.12-12.62-3.81-22.4,1.65-30.46,11.11-97.11,9.24-128.89-.1-4.74,1.41-5.64,5.15-5.13,4.53.71,10.18,2.13,14.31,4.45,6,3.24,9.58,8,10.17,15.85a331.23,331.23,0,0,1-.27,59.1c8.72-38.11,29.86-93.26,45.73-120.57,3-5.24,6.36-6.55,11-4.53,7.06,2.64,15.22,9.4,18.84,15.46,2.72,4.54,4.53,11,4.32,18.66-.74,28.54-5.94,68,4,84.63,2.41,4,6.15,4.54,9.68,2.43,22.2-13.29,31.64-62.8,35.82-94.76.51-3.74,2.32-4.14,4.84-2.22,6.45,5.05,9.57,11.41,9.06,18.57C1184.24,515,1174.88,583,1136.52,605.91Z"/><path class="cls-4" d="M668.28,668.37c1-4,2.73-5.74,6.46-5.23a38.66,38.66,0,0,1,15.83,7c6.75,5.55,8.56,12,9,22,.28,21.08-6.52,95.79,2.24,110.42,3.62,6.06,8.76,7.78,14.82,4.16C740.4,792.5,747,744,750.88,715c.51-3.73,2.62-3.63,4.84-2.22,7.46,4.45,10,9.8,9.06,18.57-3.57,29.55-12.73,96.71-49.06,118.45-19.18,11.48-37,9.14-49.41-11.56C650.3,811.45,658,709.51,668.28,668.37Z"/><path class="cls-4" d="M849,746c-4.16,21.68-19.31,41-39,52.81-14.64,8.75-26.74,9.14-31.57,1.07-7.25-12.12,7.51-36.71,35.16-54.63,3.06-25.81-27.56-64.38-31.65-94.14-7.28,15.33-11.75,36.5-17.15,80.17-.51,3.73-2,4.63-5.35,2.51-5.64-4.85-9.56-11.41-8.55-18.87,5.91-47.4,10.79-80.47,29.58-104.05,14.45-18.24,30.79-25.28,36.13-20.94,4.84,4.65,2.21,15.14-7.9,28,4.51,28.15,39.37,60.06,41.14,94,14.35-23,18-40.92,22.17-69.46.51-3.73,2.33-4.13,4.85-2.22,6.45,5.06,10.07,11.11,9,18.57C882,691.31,871.7,718.73,849,746Z"/><path class="cls-4" d="M955,714.8c-32.3,19.32-60.83,11.72-75.93-13.51C852.2,656.37,876.82,563.51,932.84,530c19.68-11.78,34.81-7.12,42.55,8.11,14.59,29-9.07,85.62-63.78,115.61a33.22,33.22,0,0,0,3.92,10c7.45,14.74,21.87,20.5,38.52,10.54,42.9-25.67,55-89.09,58.23-115.72.51-3.73,2.53-4.94,5.35-2.51,5.65,4.85,9.57,11.41,8.55,18.87C1022.51,606.56,1011,681.28,955,714.8ZM943.09,560.87c-.9-4.94-3.82-8.68-8.36-6-15.14,9.06-28.3,51.2-25.52,84.49C936,613.11,946,578.32,943.09,560.87Z"/><path class="cls-4" d="M1133.26,602.66c-15.14,9.05-32.58,5.1-41.64-10-15.4-25.74-10.5-76-1.78-114.07-20.62,41.12-44.72,116.54-54.47,169-1,4-2.42,6.25-7.77,5.34-8.27-1.22-16.83-6.38-21.06-13.44-3.32-5.56-4.12-12.62-3.81-22.4,1.65-30.46,11.12-97.11,9.24-128.89-.1-4.74,1.42-5.64,5.15-5.13,4.53.71,10.18,2.13,14.31,4.45,6,3.24,9.58,8,10.17,15.85a330.29,330.29,0,0,1-.27,59.1c8.72-38.11,29.86-93.26,45.73-120.57,3-5.24,6.36-6.55,11-4.53,7.06,2.64,15.22,9.4,18.84,15.46,2.72,4.54,4.53,11,4.32,18.66-.74,28.54-5.94,68,4,84.63,2.42,4,6.15,4.54,9.68,2.43,22.2-13.29,31.64-62.8,35.82-94.76.51-3.74,2.32-4.14,4.84-2.22,6.45,5.05,9.57,11.41,9.06,18.57C1181,511.74,1171.62,579.71,1133.26,602.66Z"/><path class="cls-5" d="M665,665.11c1-4,2.73-5.74,6.47-5.23a38.81,38.81,0,0,1,15.82,7c6.75,5.55,8.56,12,9.05,22,.28,21.09-6.52,95.79,2.24,110.43,3.62,6.05,8.76,7.77,14.82,4.15,23.72-14.19,30.33-62.7,34.2-91.74.51-3.73,2.63-3.63,4.84-2.21,7.46,4.44,10,9.79,9.06,18.57-3.57,29.54-12.73,96.7-49.06,118.44-19.18,11.48-37,9.14-49.41-11.55C647.05,808.19,654.69,706.25,665,665.11Z"/><path class="cls-5" d="M845.71,742.77c-4.16,21.68-19.31,41-39,52.81-14.64,8.75-26.74,9.14-31.57,1.07-7.25-12.12,7.51-36.71,35.16-54.63,3.06-25.81-27.55-64.38-31.65-94.14-7.28,15.33-11.75,36.5-17.15,80.17-.5,3.73-2,4.63-5.34,2.51-5.65-4.85-9.57-11.41-8.55-18.87,5.9-47.4,10.78-80.47,29.57-104.05,14.45-18.24,30.8-25.28,36.14-20.94,4.83,4.65,2.2,15.14-7.91,28,4.51,28.15,39.37,60.06,41.14,93.95,14.35-23,18-40.92,22.17-69.46.51-3.73,2.33-4.13,4.85-2.21,6.45,5,10.07,11.1,9,18.57C878.76,688.05,868.44,715.47,845.71,742.77Z"/><path class="cls-5" d="M951.75,711.54c-32.3,19.32-60.83,11.72-75.93-13.51-26.88-44.91-2.25-137.78,53.76-171.29,19.68-11.78,34.81-7.12,42.56,8.12,14.58,29-9.08,85.61-63.79,115.6a33.38,33.38,0,0,0,3.92,10c7.45,14.74,21.87,20.5,38.52,10.54,42.9-25.67,55-89.09,58.24-115.71.5-3.74,2.52-4.94,5.34-2.52,5.65,4.85,9.57,11.41,8.55,18.87C1019.25,603.3,1007.77,678,951.75,711.54ZM939.83,557.61c-.9-4.94-3.82-8.68-8.36-6-15.14,9.06-28.3,51.2-25.52,84.49C932.71,609.85,942.74,575.06,939.83,557.61Z"/><path class="cls-5" d="M1130,599.4c-15.14,9.05-32.58,5.1-41.64-10-15.4-25.74-10.5-76-1.78-114.07-20.62,41.12-44.72,116.54-54.46,169-1,4-2.43,6.25-7.78,5.34-8.27-1.22-16.83-6.38-21.06-13.44-3.32-5.55-4.12-12.61-3.81-22.4,1.65-30.46,11.12-97.11,9.24-128.89-.1-4.73,1.42-5.64,5.15-5.13,4.54.71,10.18,2.13,14.31,4.45,6,3.24,9.58,8,10.17,15.85a330.29,330.29,0,0,1-.27,59.1c8.72-38.11,29.87-93.26,45.73-120.57,3-5.24,6.37-6.55,11-4.52,7.06,2.63,15.22,9.39,18.84,15.45,2.72,4.54,4.53,11,4.32,18.66-.74,28.55-5.93,68,4,84.63,2.42,4,6.15,4.54,9.68,2.43,22.2-13.28,31.65-62.8,35.82-94.76.51-3.73,2.32-4.13,4.84-2.22,6.45,5.06,9.57,11.41,9.06,18.57C1177.72,508.48,1168.36,576.45,1130,599.4Z"/><path class="cls-4" d="M709.9,576.38c-17.75,0-20.61,21-20.61,21s-2.86-21-20.62-21c-28.91,0-24.82,41.31,20.62,63.24C734.73,617.69,738.82,576.38,709.9,576.38Z"/><path class="cls-5" d="M705.65,572.13c-17.75,0-20.61,21-20.61,21a57.5,57.5,0,0,1-15.75-9.34c-2.95-2.57.36-11.63-4.87-11.63-28.92,0-24.83,41.31,20.62,63.24C730.48,613.44,734.57,572.13,705.65,572.13Z"/><path class="cls-6" d="M701.4,567.88c-17.76,0-20.62,21-20.62,21s-2.86-21-20.61-21c-28.92,0-24.83,41.31,20.61,63.23C726.23,609.19,730.32,567.88,701.4,567.88Z"/><path class="cls-5" d="M697.15,563.62c-17.76,0-20.62,21-20.62,21s-2.86-21-20.62-21c-28.91,0-24.82,41.31,20.62,63.24C722,604.93,726.06,563.62,697.15,563.62Z"/><path class="cls-4" d="M272,303V266.74h37.88V303Z"/><path class="cls-5" d="M268,299.11V262.83h37.89v36.28Z"/><path class="cls-6" d="M263.92,295.2V258.91h37.89V295.2Z"/><path class="cls-5" d="M259.88,291.29V255h37.89v36.29Z"/><path class="cls-4" d="M848.18,303V266.74h37.88V303Z"/><path class="cls-5" d="M844.14,299.11V262.83H882v36.28Z"/><path class="cls-6" d="M840.1,295.2V258.91H878V295.2Z"/><path class="cls-5" d="M836.06,291.29V255h37.88v36.29Z"/></g></svg>